<svg width="24" height="24" fill="none" xmlns="http://www.w3.org/2000/svg"><defs><clipPath id="a"><path fill="#fff" fill-opacity="0" d="M0 0h24v24H0z"/></clipPath></defs><path fill="none" d="M0 0h24v24H0z"/><g clip-path="url(#a)" fill="#232229"><path d="m20.12 6.71-2.83-2.83A2.99 2.99 0 0 0 15.17 3H8.83c-.8 0-1.56.31-2.12.88L3.88 6.71C3.31 7.27 3 8.03 3 8.83V18c0 .79.31 1.55.87 2.12.57.56 1.33.88 2.13.88h12c.79 0 1.55-.32 2.12-.88.56-.57.88-1.33.88-2.12V8.83a3.04 3.04 0 0 0-.88-2.12m-12-1.43c.19-.18.44-.28.71-.28h6.34c.26 0 .51.1.71.28L17.59 7H6.4l1.72-1.72M18 19H6a1 1 0 0 1-.71-.3A.984.984 0 0 1 5 18V9h14v9c0 .26-.11.51-.3.7-.19.19-.44.3-.7.3Z"/><path d="M15 11a.99.99 0 0 0-1 1c0 .53-.22 1.03-.59 1.41-.38.37-.88.59-1.41.59-.54 0-1.04-.22-1.42-.59-.37-.38-.58-.88-.58-1.41a1 1 0 0 0-.3-.71A.984.984 0 0 0 9 11a.99.99 0 0 0-1 1c0 1.06.42 2.07 1.17 2.82S10.93 16 12 16c1.06 0 2.07-.43 2.82-1.18A3.99 3.99 0 0 0 16 12a1 1 0 0 0-.3-.71.984.984 0 0 0-.7-.29Z"/></g></svg>